<svg width="20" height="20" viewBox="0 0 20 20" fill="none" xmlns="http://www.w3.org/2000/svg">
<path d="M9.99972 16.9997C8.61525 16.9997 7.26219 16.5892 6.11104 15.82C4.9599 15.0509 4.06273 13.9585 3.53292 12.6794C3.00311 11.4003 2.86438 9.99235 3.13448 8.63448C3.40458 7.27661 4.07153 6.02946 5.0505 5.0505C6.02946 4.07153 7.27661 3.40458 8.63448 3.13448C9.99235 2.86438 11.4003 3.00311 12.6794 3.53292C13.9585 4.06273 15.0509 4.9599 15.82 6.11104C16.5892 7.26219 16.9997 8.61525 16.9997 9.99972C16.9963 11.8552 16.257 13.633 14.945 14.945C13.633 16.257 11.8552 16.9963 9.99972 16.9997ZM9.99972 6.99972C9.40637 6.99972 8.82705 7.17593 8.3337 7.50557C7.84035 7.83522 7.45529 8.3031 7.22823 8.85128C7.00117 9.39946 6.94255 10.0037 7.05831 10.5857C7.17406 11.1676 7.45906 11.7013 7.87862 12.1208C8.29818 12.5404 8.83183 12.8254 9.41378 12.9411C9.99572 13.0569 10.6 12.9983 11.1482 12.7712C11.6963 12.5441 12.1642 12.1591 12.4939 11.6657C12.8235 11.1724 12.9997 10.5931 12.9997 9.99972C12.9997 9.20407 12.6834 8.44123 12.1208 7.87862C11.5582 7.31601 10.7954 6.99972 9.99972 6.99972Z" fill="#34C759"/>
</svg>
