<svg width="24" height="24" viewBox="0 0 24 24" fill="none" xmlns="http://www.w3.org/2000/svg">
<path d="M15.182 4H6.455C6.06943 4.00106 5.69996 4.15469 5.42733 4.42733C5.15469 4.69996 5.00106 5.06943 5 5.455V15.636H6.455V5.455H15.182V4ZM17.364 6.909H9.364C8.97843 6.91006 8.60896 7.06369 8.33633 7.33633C8.06369 7.60896 7.91006 7.97843 7.909 8.364V18.545C7.91006 18.9306 8.06369 19.3 8.33633 19.5727C8.60896 19.8453 8.97843 19.9989 9.364 20H17.364C17.7496 19.9989 18.119 19.8453 18.3917 19.5727C18.6643 19.3 18.8179 18.9306 18.819 18.545V8.364C18.8179 7.97843 18.6643 7.60896 18.3917 7.33633C18.119 7.06369 17.7496 6.91006 17.364 6.909ZM17.364 18.545H9.364V8.364H17.364V18.545Z" fill="#999999"/>
</svg>
