<svg width="20" height="20" viewBox="0 0 20 20" fill="none" xmlns="http://www.w3.org/2000/svg">
<path d="M14.1667 10C14.1667 10.4602 14.5398 10.8333 15 10.8333C15.4602 10.8333 15.8333 10.4602 15.8333 10C15.8333 9.53976 15.4602 9.16667 15 9.16667C14.5398 9.16667 14.1667 9.53976 14.1667 10Z" fill="#333333"/>
<path d="M9.16667 10C9.16667 10.4602 9.53976 10.8333 10 10.8333C10.4602 10.8333 10.8333 10.4602 10.8333 10C10.8333 9.53976 10.4602 9.16667 10 9.16667C9.53976 9.16667 9.16667 9.53976 9.16667 10Z" fill="#333333"/>
<path d="M4.16667 10C4.16667 10.4602 4.53976 10.8333 5 10.8333C5.46024 10.8333 5.83333 10.4602 5.83333 10C5.83333 9.53976 5.46024 9.16667 5 9.16667C4.53976 9.16667 4.16667 9.53976 4.16667 10Z" fill="#333333"/>
<path d="M14.1667 10C14.1667 10.4602 14.5398 10.8333 15 10.8333C15.4602 10.8333 15.8333 10.4602 15.8333 10C15.8333 9.53976 15.4602 9.16667 15 9.16667C14.5398 9.16667 14.1667 9.53976 14.1667 10Z" stroke="#333333" stroke-width="2" stroke-linecap="round" stroke-linejoin="round"/>
<path d="M9.16667 10C9.16667 10.4602 9.53976 10.8333 10 10.8333C10.4602 10.8333 10.8333 10.4602 10.8333 10C10.8333 9.53976 10.4602 9.16667 10 9.16667C9.53976 9.16667 9.16667 9.53976 9.16667 10Z" stroke="#333333" stroke-width="2" stroke-linecap="round" stroke-linejoin="round"/>
<path d="M4.16667 10C4.16667 10.4602 4.53976 10.8333 5 10.8333C5.46024 10.8333 5.83333 10.4602 5.83333 10C5.83333 9.53976 5.46024 9.16667 5 9.16667C4.53976 9.16667 4.16667 9.53976 4.16667 10Z" stroke="#333333" stroke-width="2" stroke-linecap="round" stroke-linejoin="round"/>
</svg>
