<svg width="16" height="16" viewBox="0 0 16 16" fill="none" xmlns="http://www.w3.org/2000/svg">
<g clip-path="url(#clip0_18565_20551)">
<path d="M8 1C6.61553 1 5.26215 1.41054 4.11101 2.17971C2.95986 2.94888 2.06266 4.04213 1.53284 5.32122C1.00303 6.6003 0.864406 8.00776 1.1345 9.36563C1.4046 10.7235 2.07128 11.9708 3.05025 12.9497C4.02922 13.9287 5.2765 14.5954 6.63437 14.8655C7.99223 15.1356 9.3997 14.997 10.6788 14.4672C11.9579 13.9373 13.0511 13.0401 13.8203 11.889C14.5895 10.7378 15 9.38447 15 8C14.998 6.14409 14.2599 4.36475 12.9476 3.05242C11.6353 1.74009 9.85591 1.00196 8 1ZM10.6923 9.07692C10.6923 9.21973 10.6356 9.35669 10.5346 9.45767C10.4336 9.55865 10.2967 9.61538 10.1538 9.61538C10.011 9.61538 9.87407 9.55865 9.77309 9.45767C9.67211 9.35669 9.61538 9.21973 9.61538 9.07692V7.14586L6.22711 10.5348C6.17709 10.5848 6.11769 10.6245 6.05233 10.6516C5.98696 10.6787 5.9169 10.6926 5.84615 10.6926C5.7754 10.6926 5.70534 10.6787 5.63998 10.6516C5.57461 10.6245 5.51522 10.5848 5.46519 10.5348C5.41516 10.4848 5.37548 10.4254 5.3484 10.36C5.32133 10.2947 5.30739 10.2246 5.30739 10.1538C5.30739 10.0831 5.32133 10.013 5.3484 9.94767C5.37548 9.8823 5.41516 9.82291 5.46519 9.77288L8.85413 6.38461H6.92308C6.78027 6.38461 6.64331 6.32788 6.54233 6.2269C6.44134 6.12592 6.38461 5.98896 6.38461 5.84615C6.38461 5.70334 6.44134 5.56638 6.54233 5.4654C6.64331 5.36442 6.78027 5.30769 6.92308 5.30769H10.1538C10.2967 5.30769 10.4336 5.36442 10.5346 5.4654C10.6356 5.56638 10.6923 5.70334 10.6923 5.84615V9.07692Z" fill="#4465F0"/>
</g>
<defs>
<clipPath id="clip0_18565_20551">
<rect width="16" height="16" fill="white"/>
</clipPath>
</defs>
</svg>
