<svg width="31" height="30" viewBox="0 0 31 30" fill="none" xmlns="http://www.w3.org/2000/svg">
<path d="M15.807 3.273L19.242 10.552C19.242 10.734 19.414 10.734 19.585 10.734L27.142 11.826C27.485 11.826 27.657 12.19 27.314 12.554L21.814 18.195C21.642 18.377 21.642 18.377 21.642 18.559L22.842 26.566C22.842 26.93 22.499 27.112 22.327 26.93L15.627 23.109H15.284L8.58398 26.93C8.24098 27.112 7.89698 26.748 8.06898 26.566L9.269 18.559C9.269 18.377 9.26898 18.377 9.09698 18.195L3.59698 12.554C3.42498 12.372 3.425 11.826 3.769 11.826L11.326 10.734C11.498 10.734 11.498 10.552 11.669 10.552L15.104 3.273C15.291 2.909 15.635 2.909 15.807 3.273Z" fill="#E5E5E5"/>
</svg>
