<svg width="30" height="30" viewBox="0 0 30 30" fill="none" xmlns="http://www.w3.org/2000/svg">
<path d="M23.9999 25.998H5.99994C4.40913 25.9965 2.88458 25.3632 1.7597 24.2383C0.63483 23.1134 0.00152739 21.5889 -6.10352e-05 19.998V9.99805C0.0020556 8.4074 0.634945 6.88257 1.7597 5.75781C2.88446 4.63305 4.40929 4.00016 5.99994 3.99805H23.9999C25.5903 4.00095 27.1156 4.63322 28.2402 5.75781C29.3648 6.8824 29.997 8.40764 29.9999 9.99805V19.998C29.9978 21.5887 29.3649 23.1135 28.2402 24.2383C27.1154 25.363 25.5906 25.9959 23.9999 25.998ZM10.1288 8.02344C9.8344 8.0219 9.54889 8.1275 9.32806 8.32227L8.72845 8.92383C8.52595 9.20247 8.35805 9.50312 8.22845 9.82227C8.11273 10.1092 8.04593 10.4137 8.02924 10.7227C7.73624 13.0647 8.77245 15.1677 11.7285 18.2227C15.2055 21.6997 17.9994 21.9688 18.7734 21.9688C18.9273 21.9763 19.0816 21.96 19.2304 21.9199C19.5393 21.9028 19.8437 21.836 20.1308 21.7207C20.4517 21.5948 20.7547 21.4266 21.0312 21.2207L21.6308 20.6191C21.8402 20.454 21.9768 20.2139 22.0097 19.9492C22.0426 19.6846 21.9691 19.4166 21.8066 19.2051C21.7842 19.1733 21.7579 19.1445 21.7285 19.1191L19.5292 16.9199C19.3066 16.7287 19.022 16.623 18.7285 16.623C18.4349 16.623 18.1523 16.7287 17.9296 16.9199L16.8281 18.0195C16.8094 18.0193 16.7917 18.0147 16.7753 18.0059C16.759 17.997 16.7447 17.9842 16.7343 17.9688C16.7215 17.9532 16.7056 17.9404 16.6874 17.9316C16.6693 17.9228 16.6509 17.9184 16.6308 17.918C14.7037 16.9165 13.1323 15.3451 12.1308 13.418C12.1304 13.3978 12.124 13.3775 12.1152 13.3594C12.1064 13.3413 12.0936 13.3253 12.0781 13.3125C12.0626 13.3021 12.0498 13.2879 12.041 13.2715C12.0321 13.2551 12.0275 13.2374 12.0273 13.2188L12.7285 12.5195L13.1288 12.1191C13.2344 12.0156 13.3173 11.892 13.3749 11.7559C13.4326 11.6198 13.4638 11.474 13.4648 11.3262C13.4675 11.033 13.3534 10.7506 13.1484 10.541L13.1288 10.5176L10.9277 8.31836C10.7059 8.12518 10.421 8.02028 10.1269 8.02344H10.1288Z" fill="#4465F0"/>
</svg>
