<svg width="30" height="16" viewBox="0 0 30 16" fill="none" xmlns="http://www.w3.org/2000/svg">
<mask id="mask0_18565_20667" style="mask-type:luminance" maskUnits="userSpaceOnUse" x="0" y="0" width="30" height="16">
<path fill-rule="evenodd" clip-rule="evenodd" d="M1.879 15.5H28.12C28.6083 15.5078 29.0799 15.3222 29.4318 14.9837C29.7838 14.6452 29.9877 14.1812 29.999 13.693V2.30699C29.9877 1.81877 29.7838 1.35482 29.4318 1.01631C29.0799 0.677804 28.6083 0.492206 28.12 0.499991H1.879C1.39071 0.492206 0.91915 0.677804 0.567155 1.01631C0.215161 1.35482 0.0112888 1.81877 0 2.30699V13.964C0 14.958 0.846 15.5 1.879 15.5Z" fill="white"/>
</mask>
<g mask="url(#mask0_18565_20667)">
<path fill-rule="evenodd" clip-rule="evenodd" d="M1.879 15.647H28.12C28.6129 15.6503 29.0871 15.4584 29.4391 15.1133C29.7912 14.7682 29.9924 14.2979 29.999 13.805V2.19604C29.9924 1.70314 29.7912 1.23285 29.4391 0.887774C29.0871 0.542694 28.6129 0.350831 28.12 0.354044H1.879C1.38607 0.350831 0.911869 0.542694 0.559857 0.887774C0.207845 1.23285 0.00659027 1.70314 0 2.19604V14.081C0 15.094 0.846 15.647 1.879 15.647Z" fill="#231F20"/>
<path d="M31.486 11.415H-1.48801V16.417H31.486V11.415Z" fill="#FAA619"/>
<path d="M18.152 10.3609L17.843 9.53394H18.032L18.251 10.1459L18.463 9.53394H18.648L18.338 10.3609H18.152Z" fill="#D1D3D4"/>
<path d="M18.735 10.3609V9.53394H18.905L19.259 10.0859V9.53394H19.421V10.3609H19.246L18.898 9.82194V10.3609H18.735Z" fill="#D1D3D4"/>
<path d="M19.601 9.53589H19.776V9.98389C19.7744 10.03 19.7764 10.0761 19.782 10.1219C19.7887 10.1549 19.8076 10.1842 19.835 10.2039C19.8691 10.2261 19.9094 10.2369 19.95 10.2349C19.9895 10.2377 20.0288 10.2275 20.062 10.2059C20.0859 10.189 20.1023 10.1636 20.108 10.1349C20.1143 10.0882 20.117 10.041 20.116 9.99389V9.53589H20.291V9.96989C20.2932 10.0402 20.2885 10.1105 20.277 10.1799C20.2683 10.217 20.2504 10.2514 20.225 10.2799C20.1972 10.3096 20.163 10.3325 20.125 10.3469C20.0717 10.3653 20.0154 10.3738 19.959 10.3719C19.8952 10.375 19.8314 10.3658 19.771 10.3449C19.7327 10.3292 19.6984 10.3049 19.671 10.2739C19.6477 10.2475 19.6309 10.216 19.622 10.1819C19.6086 10.1127 19.6029 10.0423 19.605 9.97189L19.601 9.53589Z" fill="#D1D3D4"/>
<path d="M21.001 10.3609V9.67393H20.742V9.53394H21.429V9.67393H21.173V10.3609H21.001Z" fill="#D1D3D4"/>
<path d="M21.826 10.0109C21.8264 9.97413 21.8132 9.93852 21.789 9.91089C21.7779 9.89927 21.7646 9.89007 21.7498 9.88387C21.735 9.87767 21.719 9.87462 21.703 9.87489C21.6862 9.87443 21.6694 9.87758 21.6539 9.88414C21.6384 9.89069 21.6244 9.9005 21.613 9.91289C21.589 9.94051 21.5764 9.9763 21.578 10.0129L21.826 10.0109ZM21.816 10.1709L21.981 10.1969C21.9629 10.2506 21.9278 10.2969 21.881 10.3289C21.8294 10.3606 21.7695 10.3763 21.709 10.3739C21.6636 10.3777 21.618 10.3706 21.5759 10.3532C21.5338 10.3358 21.4965 10.3086 21.467 10.2739C21.4241 10.214 21.4023 10.1415 21.405 10.0679C21.4025 10.0256 21.4084 9.98331 21.4223 9.94333C21.4362 9.90335 21.4578 9.8665 21.486 9.83489C21.5125 9.80726 21.5446 9.78551 21.5801 9.77104C21.6156 9.75657 21.6537 9.74971 21.692 9.75089C21.733 9.74871 21.774 9.75544 21.8122 9.77063C21.8503 9.78583 21.8847 9.80911 21.913 9.83889C21.9725 9.91597 22.0001 10.013 21.99 10.1099H21.575C21.5736 10.1504 21.5879 10.1898 21.615 10.2199C21.6279 10.2332 21.6434 10.2436 21.6607 10.2504C21.678 10.2571 21.6965 10.26 21.715 10.2589C21.7383 10.26 21.7613 10.2529 21.78 10.2389C21.7998 10.222 21.8138 10.1992 21.82 10.1739" fill="#D1D3D4"/>
<path d="M22.667 9.94L22.504 9.968C22.5007 9.94061 22.4876 9.91536 22.467 9.897C22.4452 9.88036 22.4183 9.87186 22.391 9.873C22.3723 9.87199 22.3537 9.87515 22.3364 9.88224C22.3191 9.88933 22.3036 9.90018 22.291 9.914C22.2623 9.95361 22.2492 10.0023 22.254 10.051C22.2488 10.1041 22.2618 10.1574 22.291 10.202C22.3032 10.2164 22.3186 10.2279 22.3359 10.2355C22.3532 10.2431 22.3721 10.2467 22.391 10.246C22.419 10.247 22.4463 10.2378 22.468 10.22C22.4913 10.1961 22.5061 10.1652 22.51 10.132L22.673 10.158C22.6601 10.2222 22.6246 10.2797 22.573 10.32C22.5165 10.3592 22.4486 10.3786 22.38 10.375C22.3397 10.3769 22.2995 10.3705 22.2619 10.3563C22.2242 10.342 22.1899 10.3201 22.161 10.292C22.108 10.2269 22.079 10.1455 22.079 10.0615C22.079 9.97752 22.108 9.89612 22.161 9.831C22.1904 9.80281 22.2253 9.78092 22.2634 9.76665C22.3016 9.75238 22.3423 9.74603 22.383 9.748C22.447 9.74459 22.5106 9.761 22.565 9.795C22.614 9.82998 22.6493 9.88087 22.665 9.939" fill="#D1D3D4"/>
<path d="M22.955 9.53589V9.83589C22.9784 9.80763 23.0077 9.7849 23.0409 9.76933C23.0741 9.75377 23.1103 9.74576 23.147 9.74589C23.1813 9.7457 23.2154 9.7525 23.247 9.76589C23.2742 9.77687 23.298 9.7948 23.316 9.81789C23.3314 9.83874 23.3423 9.86258 23.348 9.88789C23.355 9.92715 23.358 9.96702 23.357 10.0069V10.3579H23.191V10.0469C23.1931 10.0066 23.1898 9.96625 23.181 9.92689C23.1749 9.91018 23.1632 9.89607 23.148 9.88689C23.1298 9.87631 23.109 9.87111 23.088 9.87189C23.0621 9.87135 23.0365 9.87791 23.014 9.89089C22.9918 9.9041 22.9748 9.9246 22.966 9.94889C22.9545 9.98574 22.9494 10.0243 22.951 10.0629V10.3629H22.785V9.53589H22.955Z" fill="#D1D3D4"/>
<path d="M24.092 10.3621H23.926V10.0521C23.9283 10.0098 23.9246 9.96738 23.915 9.9261C23.9087 9.90814 23.8968 9.89271 23.881 9.8821C23.8638 9.87094 23.8435 9.86535 23.823 9.8661C23.7956 9.86583 23.7688 9.87385 23.746 9.8891C23.7239 9.90312 23.7073 9.9243 23.699 9.9491C23.6883 9.99427 23.6839 10.0407 23.686 10.0871V10.3581H23.52V9.7581H23.674V9.8521C23.7093 9.80691 23.7583 9.77439 23.8137 9.75943C23.869 9.74446 23.9277 9.74786 23.981 9.7691C24.0077 9.77895 24.0315 9.79548 24.05 9.8171C24.0654 9.83684 24.0763 9.8597 24.082 9.8841C24.089 9.91898 24.092 9.95454 24.091 9.9901L24.092 10.3621Z" fill="#D1D3D4"/>
<path d="M24.389 10.061C24.3854 10.1107 24.4012 10.1598 24.433 10.198C24.4468 10.2132 24.4636 10.2252 24.4824 10.2333C24.5012 10.2414 24.5215 10.2454 24.542 10.245C24.5625 10.2455 24.5828 10.2415 24.6016 10.2334C24.6204 10.2253 24.6373 10.2132 24.651 10.198C24.6824 10.1592 24.6981 10.1099 24.695 10.06C24.6981 10.0111 24.6824 9.96277 24.651 9.92504C24.6374 9.90963 24.6206 9.89735 24.6018 9.88906C24.5829 9.88078 24.5625 9.87667 24.542 9.87704C24.5214 9.87681 24.5011 9.88097 24.4823 9.88925C24.4635 9.89752 24.4467 9.90973 24.433 9.92504C24.4012 9.96333 24.3854 10.0114 24.389 10.061ZM24.219 10.053C24.2194 9.99938 24.2335 9.9467 24.26 9.90004C24.2861 9.85166 24.3262 9.81227 24.375 9.78704C24.4266 9.76059 24.484 9.7472 24.542 9.74804C24.5847 9.74639 24.6274 9.75333 24.6674 9.76844C24.7074 9.78356 24.744 9.80654 24.775 9.83604C24.8047 9.86491 24.8282 9.89963 24.8438 9.93801C24.8595 9.97639 24.8671 10.0176 24.866 10.059C24.8672 10.1009 24.8596 10.1425 24.8438 10.1813C24.828 10.22 24.8042 10.255 24.774 10.284C24.7434 10.3136 24.7072 10.3367 24.6675 10.352C24.6278 10.3673 24.5855 10.3745 24.543 10.373C24.4862 10.3731 24.4302 10.3605 24.379 10.336C24.3289 10.313 24.2873 10.2749 24.26 10.227C24.2314 10.1733 24.2172 10.1139 24.219 10.053Z" fill="#D1D3D4"/>
<path d="M25.157 9.53491H24.991V10.3619H25.157V9.53491Z" fill="#D1D3D4"/>
<path d="M25.455 10.061C25.4515 10.1107 25.4672 10.1598 25.499 10.198C25.5129 10.213 25.5298 10.2249 25.5486 10.2331C25.5673 10.2412 25.5875 10.2455 25.608 10.2455C25.6284 10.2455 25.6487 10.2412 25.6674 10.2331C25.6862 10.2249 25.703 10.213 25.717 10.198C25.7484 10.1592 25.7641 10.1099 25.761 10.06C25.7641 10.0111 25.7484 9.96277 25.717 9.92504C25.703 9.91008 25.6862 9.89815 25.6674 9.89C25.6487 9.88184 25.6284 9.87763 25.608 9.87763C25.5875 9.87763 25.5673 9.88184 25.5486 9.89C25.5298 9.89815 25.5129 9.91008 25.499 9.92504C25.4672 9.96333 25.4515 10.0114 25.455 10.061ZM25.285 10.053C25.2853 9.99937 25.2994 9.94668 25.326 9.90004C25.3521 9.85166 25.3922 9.81227 25.441 9.78704C25.4926 9.76059 25.55 9.7472 25.608 9.74804C25.6507 9.74639 25.6934 9.75333 25.7334 9.76844C25.7734 9.78356 25.81 9.80654 25.841 9.83604C25.8707 9.86491 25.8942 9.89963 25.9098 9.93801C25.9255 9.97639 25.933 10.0176 25.932 10.059C25.9332 10.1009 25.9256 10.1425 25.9098 10.1813C25.894 10.22 25.8702 10.255 25.84 10.284C25.8094 10.3136 25.7732 10.3367 25.7335 10.352C25.6938 10.3673 25.6515 10.3745 25.609 10.373C25.5522 10.3731 25.4962 10.3605 25.445 10.336C25.3949 10.313 25.3533 10.2749 25.326 10.227C25.2974 10.1733 25.2832 10.1139 25.285 10.053Z" fill="#D1D3D4"/>
<path d="M26.189 10.0519C26.1849 10.1017 26.1988 10.1514 26.228 10.1919C26.2401 10.2066 26.2554 10.2182 26.2727 10.2258C26.2901 10.2335 26.309 10.2369 26.328 10.2359C26.3469 10.2359 26.3656 10.2319 26.3828 10.2241C26.4 10.2163 26.4154 10.205 26.428 10.1909C26.4586 10.1528 26.4736 10.1046 26.47 10.0559C26.4742 10.0065 26.46 9.95736 26.43 9.91791C26.4176 9.90357 26.4022 9.89212 26.385 9.88434C26.3677 9.87657 26.3489 9.87267 26.33 9.8729C26.3111 9.87219 26.2923 9.87578 26.2749 9.8834C26.2576 9.89102 26.2423 9.90248 26.23 9.91691C26.2011 9.95571 26.1872 10.0037 26.191 10.0519M26.043 10.4029L26.232 10.4249C26.2326 10.4332 26.2349 10.4413 26.2386 10.4486C26.2424 10.456 26.2476 10.4626 26.254 10.4679C26.2764 10.4808 26.3022 10.4867 26.328 10.4849C26.3624 10.4873 26.3969 10.4808 26.428 10.4659C26.4433 10.4568 26.4549 10.4427 26.461 10.4259C26.4675 10.4022 26.4703 10.3775 26.469 10.3529V10.2659C26.4483 10.2965 26.4205 10.3217 26.3879 10.3391C26.3553 10.3565 26.3189 10.3657 26.282 10.3659C26.243 10.3673 26.2042 10.3588 26.1693 10.3413C26.1343 10.3239 26.1043 10.2979 26.082 10.2659C26.0419 10.2071 26.0216 10.137 26.024 10.0659C26.0183 9.98225 26.0456 9.8997 26.1 9.8359C26.1239 9.81008 26.153 9.78961 26.1854 9.77582C26.2178 9.76204 26.2528 9.75525 26.288 9.7559C26.3257 9.75579 26.3629 9.76483 26.3963 9.78225C26.4297 9.79967 26.4585 9.82494 26.48 9.85591V9.7619H26.635V10.2999C26.6372 10.3532 26.6311 10.4065 26.617 10.4579C26.6072 10.4891 26.5897 10.5173 26.566 10.5399C26.5405 10.5619 26.5105 10.578 26.478 10.5869C26.4327 10.5993 26.3859 10.6051 26.339 10.6039C26.2594 10.6115 26.1795 10.5932 26.111 10.5519C26.0901 10.5369 26.0731 10.517 26.0614 10.4941C26.0498 10.4711 26.0438 10.4457 26.044 10.4199C26.044 10.4149 26.044 10.4079 26.044 10.4009" fill="#D1D3D4"/>
<path d="M26.713 9.76196H26.889L27.039 10.187L27.185 9.76196H27.357L27.136 10.339L27.097 10.439C27.0859 10.4671 27.0718 10.4939 27.055 10.519C27.0429 10.5366 27.0276 10.5518 27.01 10.564C26.9907 10.5765 26.9694 10.5857 26.947 10.591C26.9192 10.5978 26.8906 10.6012 26.862 10.601C26.8304 10.6008 26.7989 10.5975 26.768 10.591L26.753 10.467C26.7761 10.4715 26.7995 10.4738 26.823 10.474C26.8388 10.4754 26.8547 10.4733 26.8696 10.4678C26.8845 10.4622 26.898 10.4534 26.909 10.442C26.9287 10.4176 26.943 10.3893 26.951 10.359L26.713 9.76196Z" fill="#D1D3D4"/>
<path d="M6.64499 13.5509C6.65191 13.4417 6.61605 13.3341 6.545 13.2509C6.51215 13.2178 6.47298 13.1916 6.42981 13.1739C6.38664 13.1562 6.34036 13.1474 6.29372 13.148C6.24708 13.1485 6.20102 13.1585 6.1583 13.1772C6.11557 13.1959 6.07704 13.223 6.045 13.2569C6.01006 13.2963 5.98325 13.3422 5.96609 13.3919C5.94893 13.4417 5.94176 13.4944 5.94499 13.5469L6.64499 13.5509ZM6.61799 14.0029L7.08399 14.0779C7.03284 14.2303 6.93306 14.3617 6.79999 14.4519C6.65456 14.5416 6.48577 14.5862 6.31499 14.5799C6.18657 14.5899 6.05763 14.5689 5.93897 14.5188C5.82031 14.4687 5.71539 14.3909 5.63299 14.2919C5.51147 14.1224 5.4499 13.9173 5.45799 13.7089C5.45102 13.5893 5.46775 13.4695 5.50722 13.3564C5.54669 13.2433 5.60813 13.1392 5.68799 13.0499C5.76276 12.9717 5.85312 12.9102 5.95321 12.8692C6.05329 12.8282 6.16088 12.8086 6.26899 12.8119C6.38467 12.8058 6.50029 12.8249 6.60786 12.8679C6.71542 12.9109 6.81237 12.9768 6.892 13.0609C7.06002 13.2781 7.13807 13.5517 7.10999 13.8249H5.93799C5.93413 13.939 5.97463 14.0501 6.05099 14.1349C6.08582 14.1711 6.12782 14.1997 6.17431 14.2188C6.22079 14.2379 6.27075 14.2471 6.32099 14.2459C6.38726 14.2479 6.45232 14.2278 6.50599 14.1889C6.56224 14.1407 6.60179 14.0759 6.61899 14.0039" fill="#231F20"/>
<path d="M7.611 12.8501H8.042V13.0811C8.10741 12.9974 8.19101 12.9296 8.28648 12.883C8.38194 12.8364 8.48676 12.8122 8.59299 12.8121C8.69537 12.8095 8.79678 12.8325 8.888 12.8791C8.97177 12.9261 9.04097 12.9953 9.088 13.0791C9.15751 12.9964 9.24284 12.9284 9.339 12.8791C9.42846 12.8346 9.52709 12.8117 9.627 12.8121C9.74171 12.8086 9.85538 12.8347 9.957 12.8881C10.046 12.9384 10.1162 13.0163 10.157 13.1101C10.1954 13.2226 10.2117 13.3414 10.205 13.4601V14.5421H9.737V13.5751C9.74724 13.4645 9.73078 13.353 9.689 13.2501C9.66727 13.2174 9.63738 13.191 9.6023 13.1735C9.56722 13.1559 9.52816 13.1479 9.48899 13.1501C9.42301 13.1501 9.35855 13.17 9.304 13.2071C9.24456 13.2474 9.2005 13.3066 9.179 13.3751C9.14861 13.4891 9.1358 13.6072 9.141 13.7251V14.5371H8.673V13.6191C8.67861 13.5121 8.67021 13.4049 8.64799 13.3001C8.63516 13.2567 8.60802 13.219 8.571 13.1931C8.52816 13.1676 8.47875 13.1555 8.429 13.1581C8.35991 13.1572 8.29209 13.1767 8.234 13.2141C8.17559 13.2521 8.13185 13.3089 8.11 13.3751C8.07979 13.4888 8.0673 13.6065 8.07299 13.7241V14.5461H7.605L7.611 12.8501Z" fill="#231F20"/>
<path d="M11.205 13.6561C11.1949 13.7914 11.2219 13.9269 11.283 14.0481C11.3153 14.1027 11.3617 14.1477 11.4172 14.1785C11.4728 14.2093 11.5355 14.2246 11.599 14.2231C11.6517 14.2234 11.7039 14.2117 11.7515 14.1891C11.7991 14.1664 11.841 14.1332 11.874 14.0921C11.9575 13.9788 11.9976 13.8394 11.987 13.6991C12.0001 13.5506 11.9613 13.4021 11.877 13.2791C11.8421 13.2392 11.799 13.2072 11.7507 13.1853C11.7025 13.1633 11.65 13.152 11.597 13.152C11.544 13.152 11.4915 13.1633 11.4433 13.1853C11.395 13.2072 11.3519 13.2392 11.317 13.2791C11.2347 13.3871 11.1948 13.5206 11.205 13.6561ZM12.454 14.5401H12.02V14.2921C11.9534 14.3837 11.8656 14.4579 11.764 14.5081C11.6285 14.575 11.4747 14.5953 11.3266 14.5656C11.1784 14.5359 11.0442 14.458 10.945 14.3441C10.791 14.1614 10.7133 13.9265 10.728 13.6881C10.711 13.451 10.7866 13.2165 10.939 13.0341C11.007 12.9607 11.0899 12.9027 11.1822 12.8641C11.2745 12.8254 11.374 12.807 11.474 12.8101C11.5715 12.81 11.6678 12.831 11.7564 12.8718C11.845 12.9125 11.9236 12.972 11.987 13.0461V12.2051H12.457L12.454 14.5401Z" fill="#231F20"/>
<path d="M13.441 13.6561C13.4309 13.7914 13.4579 13.9269 13.519 14.0481C13.5513 14.1027 13.5977 14.1478 13.6532 14.1785C13.7088 14.2093 13.7715 14.2247 13.835 14.2231C13.8877 14.2234 13.9399 14.2118 13.9875 14.1891C14.0351 14.1664 14.077 14.1332 14.11 14.0921C14.1935 13.9788 14.2336 13.8394 14.223 13.6991C14.2362 13.5506 14.1973 13.4021 14.113 13.2791C14.0789 13.2379 14.0359 13.205 13.9872 13.1828C13.9385 13.1607 13.8855 13.1498 13.832 13.1511C13.779 13.1503 13.7265 13.1613 13.6782 13.1832C13.63 13.2052 13.5872 13.2376 13.553 13.2781C13.4707 13.3862 13.4308 13.5206 13.441 13.6561ZM14.69 14.5391H14.255V14.2911C14.1884 14.3828 14.1005 14.4569 13.999 14.5071C13.8635 14.5741 13.7097 14.5943 13.5616 14.5646C13.4134 14.535 13.2792 14.4571 13.18 14.3431C13.026 14.1605 12.9483 13.9255 12.963 13.6871C12.946 13.45 13.0216 13.2156 13.174 13.0331C13.242 12.9597 13.3249 12.9017 13.4172 12.8631C13.5095 12.8244 13.609 12.806 13.709 12.8091C13.8065 12.809 13.9028 12.83 13.9914 12.8708C14.08 12.9115 14.1586 12.971 14.222 13.0451V12.2041H14.69V14.5391Z" fill="#231F20"/>
<path d="M15.305 12.8559H15.773V14.5479H15.305V12.8559ZM15.305 12.2119H15.773V12.6259H15.305V12.2119Z" fill="#231F20"/>
<path d="M16.874 14.094H16.406V14.542H16.874V14.094Z" fill="#231F20"/>
<path d="M19.049 13.35L18.588 13.43C18.5786 13.3525 18.5408 13.2813 18.482 13.23C18.4207 13.1833 18.345 13.1596 18.268 13.163C18.2159 13.1606 18.164 13.1697 18.1158 13.1895C18.0676 13.2094 18.0243 13.2396 17.989 13.278C17.9106 13.3906 17.8751 13.5275 17.889 13.664C17.8752 13.8136 17.9125 13.9634 17.995 14.089C18.0298 14.1298 18.0735 14.1622 18.1227 14.1837C18.1719 14.2052 18.2254 14.2152 18.279 14.213C18.358 14.2163 18.4355 14.1907 18.497 14.141C18.5634 14.0735 18.6056 13.9859 18.617 13.892L19.077 13.967C19.0424 14.1471 18.9449 14.309 18.802 14.424C18.6425 14.5345 18.4508 14.589 18.257 14.579C18.1433 14.5846 18.0296 14.5667 17.9231 14.5264C17.8166 14.4862 17.7196 14.4244 17.638 14.345C17.4888 14.1612 17.4073 13.9317 17.4073 13.695C17.4073 13.4583 17.4888 13.2287 17.638 13.045C17.721 12.9655 17.8193 12.9039 17.9269 12.8638C18.0346 12.8238 18.1493 12.8061 18.264 12.812C18.4449 12.8026 18.6243 12.849 18.778 12.945C18.9128 13.0449 19.0094 13.1877 19.052 13.35" fill="#231F20"/>
<path d="M19.928 13.696C19.9183 13.836 19.9631 13.9743 20.053 14.082C20.0924 14.1241 20.14 14.1577 20.1929 14.1806C20.2458 14.2036 20.3028 14.2154 20.3605 14.2154C20.4182 14.2154 20.4752 14.2036 20.5281 14.1806C20.581 14.1577 20.6286 14.1241 20.668 14.082C20.7575 13.9729 20.8019 13.8337 20.792 13.693C20.801 13.5545 20.7566 13.4178 20.668 13.311C20.6286 13.2689 20.581 13.2353 20.5281 13.2123C20.4752 13.1894 20.4182 13.1775 20.3605 13.1775C20.3028 13.1775 20.2458 13.1894 20.1929 13.2123C20.14 13.2353 20.0924 13.2689 20.053 13.311C19.9631 13.4187 19.9183 13.556 19.928 13.696ZM19.449 13.673C19.4497 13.5215 19.4893 13.3728 19.564 13.241C19.638 13.1043 19.7517 12.9931 19.89 12.922C20.0353 12.8475 20.1967 12.8097 20.36 12.812C20.4808 12.8072 20.6013 12.8268 20.7143 12.8695C20.8274 12.9123 20.9307 12.9774 21.018 13.061C21.1022 13.1424 21.1684 13.2405 21.2125 13.349C21.2566 13.4574 21.2775 13.5739 21.274 13.691C21.2774 13.8092 21.2561 13.9268 21.2115 14.0363C21.1669 14.1458 21.1 14.2448 21.015 14.327C20.9287 14.4105 20.8266 14.476 20.7146 14.5194C20.6026 14.5629 20.4831 14.5835 20.363 14.58C20.2024 14.5804 20.0438 14.5445 19.899 14.475C19.7574 14.4102 19.6398 14.3024 19.563 14.167C19.4822 14.0148 19.4426 13.8442 19.448 13.672" fill="#231F20"/>
<path d="M21.757 12.8501H22.188V13.0811C22.2534 12.9974 22.337 12.9297 22.4325 12.8831C22.5279 12.8364 22.6327 12.8122 22.739 12.8121C22.8414 12.8096 22.9428 12.8326 23.034 12.8791C23.1177 12.9262 23.1869 12.9954 23.234 13.0791C23.3038 12.9962 23.3895 12.9282 23.486 12.8791C23.5754 12.8345 23.6741 12.8116 23.774 12.8121C23.8887 12.8085 24.0024 12.8347 24.104 12.8881C24.1929 12.9385 24.2631 13.0164 24.304 13.1101C24.3422 13.2226 24.3585 13.3414 24.352 13.4601V14.5421H23.884V13.5751C23.8943 13.4645 23.8779 13.353 23.836 13.2501C23.8143 13.2174 23.7844 13.191 23.7493 13.1735C23.7142 13.1559 23.6751 13.1479 23.636 13.1501C23.57 13.1501 23.5055 13.17 23.451 13.2071C23.3916 13.2474 23.3475 13.3066 23.326 13.3751C23.2956 13.4892 23.2828 13.6072 23.288 13.7251V14.5371H22.82V13.6191C22.8256 13.5121 22.8172 13.4049 22.795 13.3001C22.7821 13.2567 22.755 13.219 22.718 13.1931C22.6752 13.1676 22.6257 13.1555 22.576 13.1581C22.5069 13.1572 22.4391 13.1767 22.381 13.2141C22.3226 13.2522 22.2789 13.3089 22.257 13.3751C22.2269 13.4888 22.2144 13.6066 22.22 13.7241V14.5461H21.757V12.8501Z" fill="#231F20"/>
<path d="M14.004 8.68189H13.65C13.5908 8.68189 13.5341 8.65839 13.4923 8.61657C13.4505 8.57475 13.427 8.51803 13.427 8.45889V3.51489L11.911 6.93189C11.8961 6.96101 11.8737 6.98563 11.8461 7.00321C11.8185 7.02078 11.7867 7.03068 11.754 7.03189H11.49C11.4573 7.03068 11.4255 7.02078 11.3979 7.00321C11.3703 6.98563 11.3479 6.96101 11.333 6.93189L9.82598 3.51489V8.46189C9.82598 8.52103 9.80249 8.57775 9.76067 8.61957C9.71885 8.66139 9.66213 8.68489 9.60299 8.68489H9.30299C9.24384 8.68489 9.18712 8.66139 9.1453 8.61957C9.10348 8.57775 9.07999 8.52103 9.07999 8.46189V2.90689C9.07999 2.84774 9.10348 2.79102 9.1453 2.7492C9.18712 2.70738 9.24384 2.68389 9.30299 2.68389H10.054C10.0867 2.68509 10.1185 2.69499 10.1461 2.71257C10.1737 2.73015 10.1961 2.75477 10.211 2.78389L11.669 6.02589L13.009 2.92589L13.074 2.78189C13.0889 2.75277 13.1113 2.72815 13.1389 2.71057C13.1665 2.69299 13.1983 2.68309 13.231 2.68189H14.004C14.0334 2.68176 14.0625 2.68743 14.0896 2.69857C14.1168 2.70972 14.1415 2.72613 14.1623 2.74685C14.1831 2.76757 14.1996 2.7922 14.2109 2.81932C14.2222 2.84644 14.228 2.87552 14.228 2.90489V8.46189C14.228 8.49126 14.2222 8.52034 14.2109 8.54746C14.1996 8.57458 14.1831 8.59921 14.1623 8.61993C14.1415 8.64065 14.1168 8.65705 14.0896 8.6682C14.0625 8.67935 14.0334 8.68502 14.004 8.68489" fill="#D1D3D4"/>
<path d="M2.625 8.46208V2.90708C2.625 2.8778 2.63077 2.8488 2.64198 2.82174C2.65318 2.79469 2.66961 2.7701 2.69032 2.7494C2.71102 2.72869 2.73561 2.71226 2.76266 2.70106C2.78972 2.68985 2.81871 2.68408 2.848 2.68408H6.162C6.19129 2.68408 6.22028 2.68985 6.24734 2.70106C6.27439 2.71226 6.29898 2.72869 6.31968 2.7494C6.34039 2.7701 6.35682 2.79469 6.36802 2.82174C6.37923 2.8488 6.385 2.8778 6.385 2.90708V3.17008C6.385 3.22923 6.36151 3.28595 6.31968 3.32777C6.27786 3.36959 6.22114 3.39308 6.162 3.39308H3.426V5.03608H5.962C6.02141 5.03608 6.07838 5.05968 6.12039 5.10169C6.1624 5.1437 6.186 5.20067 6.186 5.26008V5.52308C6.186 5.58249 6.1624 5.63947 6.12039 5.68147C6.07838 5.72348 6.02141 5.74708 5.962 5.74708H3.426V7.97608H6.162C6.22114 7.97608 6.27786 7.99958 6.31968 8.0414C6.36151 8.08322 6.385 8.13994 6.385 8.19908V8.46208C6.385 8.52122 6.36151 8.57795 6.31968 8.61977C6.27786 8.66159 6.22114 8.68508 6.162 8.68508H2.852C2.79286 8.68508 2.73614 8.66159 2.69431 8.61977C2.65249 8.57795 2.629 8.52122 2.629 8.46208" fill="#D1D3D4"/>
<path d="M27.151 8.69294H25.265C25.2059 8.69294 25.1491 8.66945 25.1073 8.62763C25.0655 8.58581 25.042 8.52909 25.042 8.46994V8.30594C25.0419 8.27657 25.0475 8.24747 25.0587 8.22029C25.0698 8.19312 25.0862 8.16842 25.107 8.14761C25.1277 8.1268 25.1523 8.11028 25.1794 8.09901C25.2066 8.08774 25.2356 8.08194 25.265 8.08194H25.809V3.30194H25.265C25.2356 3.30194 25.2066 3.29614 25.1794 3.28487C25.1523 3.2736 25.1277 3.25709 25.107 3.23627C25.0862 3.21546 25.0698 3.19076 25.0587 3.16359C25.0475 3.13642 25.0419 3.10731 25.042 3.07794V2.91394C25.0419 2.88457 25.0475 2.85547 25.0587 2.8283C25.0698 2.80112 25.0862 2.77642 25.107 2.75561C25.1277 2.7348 25.1523 2.71828 25.1794 2.70701C25.2066 2.69574 25.2356 2.68994 25.265 2.68994H27.155C27.1844 2.68994 27.2135 2.69574 27.2406 2.70701C27.2677 2.71828 27.2923 2.7348 27.313 2.75561C27.3338 2.77642 27.3502 2.80112 27.3613 2.8283C27.3725 2.85547 27.3781 2.88457 27.378 2.91394V3.07794C27.3781 3.10731 27.3725 3.13642 27.3613 3.16359C27.3502 3.19076 27.3338 3.21546 27.313 3.23627C27.2923 3.25709 27.2677 3.2736 27.2406 3.28487C27.2135 3.29614 27.1844 3.30194 27.155 3.30194H26.61V8.08194H27.155C27.1844 8.08194 27.2135 8.08774 27.2406 8.09901C27.2677 8.11028 27.2923 8.1268 27.313 8.14761C27.3338 8.16842 27.3502 8.19312 27.3613 8.22029C27.3725 8.24747 27.3781 8.27657 27.378 8.30594V8.46994C27.378 8.49923 27.3722 8.52822 27.361 8.55528C27.3498 8.58233 27.3334 8.60692 27.3127 8.62763C27.292 8.64833 27.2674 8.66476 27.2403 8.67597C27.2133 8.68717 27.1843 8.69294 27.155 8.69294" fill="#D1D3D4"/>
<path d="M19.625 3.38206H17.684V7.99206H19.669C19.9797 7.99635 20.2901 7.96819 20.595 7.90806C20.8556 7.85326 21.1026 7.74646 21.321 7.59406C21.5944 7.40834 21.8097 7.14901 21.942 6.84606C22.092 6.4758 22.1632 6.07835 22.151 5.67906C22.1624 5.27399 22.0842 4.87141 21.922 4.50006C21.7781 4.18372 21.5417 3.9184 21.244 3.73906C21.0348 3.61056 20.8062 3.51668 20.567 3.46106C20.2711 3.39943 19.9692 3.37125 19.667 3.37706L19.625 3.38206ZM19.625 8.69006H17.105C17.0459 8.69006 16.9891 8.66656 16.9473 8.62474C16.9055 8.58292 16.882 8.5262 16.882 8.46706V7.56706V3.80906V2.90906C16.882 2.84991 16.9055 2.79319 16.9473 2.75137C16.9891 2.70955 17.0459 2.68606 17.105 2.68606H19.652C20.0889 2.67582 20.5254 2.71846 20.952 2.81306C21.242 2.88457 21.5185 3.00242 21.771 3.16206C22.1565 3.41456 22.4672 3.76574 22.671 4.17906C22.8934 4.65173 23.0023 5.16984 22.989 5.69206C22.9969 6.20567 22.8832 6.71386 22.657 7.17506C22.4571 7.59219 22.1495 7.94844 21.766 8.20706C21.4837 8.38977 21.1706 8.51987 20.842 8.59106C20.4463 8.66404 20.0443 8.69754 19.642 8.69106H19.626L19.625 8.69006Z" fill="#D1D3D4"/>
<path d="M18.456 3.95304H19.924C20.1653 3.95188 20.4039 4.00303 20.6235 4.10299C20.8431 4.20295 21.0384 4.34933 21.196 4.53205C21.4308 4.87108 21.5566 5.27366 21.5566 5.68604C21.5566 6.09843 21.4308 6.50101 21.196 6.84004C21.0384 7.02276 20.8431 7.16914 20.6235 7.2691C20.4039 7.36906 20.1653 7.42021 19.924 7.41904H18.456C18.4013 7.41878 18.3489 7.39685 18.3103 7.35806C18.2717 7.31927 18.25 7.26677 18.25 7.21204V6.90405C18.25 6.84932 18.2717 6.79682 18.3103 6.75803C18.3489 6.71923 18.4013 6.69731 18.456 6.69704H19.924C20.0552 6.69871 20.1852 6.67287 20.3058 6.6212C20.4263 6.56953 20.5347 6.49317 20.624 6.39705C20.7603 6.18348 20.8327 5.9354 20.8327 5.68204C20.8327 5.42869 20.7603 5.18061 20.624 4.96704C20.5347 4.87092 20.4263 4.79456 20.3058 4.74289C20.1852 4.69122 20.0552 4.66538 19.924 4.66705H18.456C18.4013 4.66678 18.3489 4.64486 18.3103 4.60606C18.2717 4.56727 18.25 4.51477 18.25 4.46004V4.15204C18.25 4.12499 18.2553 4.0982 18.2657 4.07321C18.276 4.04822 18.2912 4.02551 18.3103 4.00638C18.3295 3.98725 18.3522 3.97208 18.3772 3.96173C18.4022 3.95137 18.4289 3.94604 18.456 3.94604" fill="#FAA619"/>
</g>
</svg>
