<svg width="30" height="16" viewBox="0 0 30 16" fill="none" xmlns="http://www.w3.org/2000/svg">
<path d="M26.7525 2.1426C26.6341 1.55739 26.3169 1.03117 25.8547 0.653194C25.3925 0.275217 24.8138 0.0687602 24.2168 0.0688477H5.83426C5.2372 0.0687602 4.65847 0.275217 4.19629 0.653194C3.7341 1.03117 3.41693 1.55739 3.29852 2.1426L1.34177 11.8176H28.7093L26.7525 2.1426Z" fill="#FED402"/>
<path d="M12.4912 0.0681153H5.83723C5.24017 0.0680278 4.66147 0.274484 4.19928 0.652462C3.7371 1.03044 3.41989 1.55666 3.30148 2.14187L1.34473 11.8169H7.99873L9.95549 2.14187C10.0739 1.55666 10.3911 1.03044 10.8533 0.652462C11.3155 0.274484 11.8942 0.0680278 12.4912 0.0681153Z" fill="#FDB441"/>
<path d="M23.76 4.05595V8.6782C23.76 8.90414 23.7155 9.12787 23.629 9.33661C23.5426 9.54535 23.4158 9.73502 23.2561 9.89478C23.0963 10.0545 22.9066 10.1813 22.6979 10.2677C22.4892 10.3542 22.2654 10.3987 22.0395 10.3987H7.72575C7.2701 10.3977 6.83345 10.216 6.5116 9.89345C6.18976 9.57091 6.009 9.13386 6.009 8.6782V4.05595C6.009 3.59965 6.19028 3.16203 6.51293 2.83937C6.83559 2.51672 7.2732 2.33545 7.72951 2.33545H22.0433C22.4996 2.33545 22.9372 2.51672 23.2598 2.83937C23.5825 3.16203 23.7638 3.59965 23.7638 4.05595" fill="#404040"/>
<path d="M8.31973 8.5C7.97988 8.5 7.78066 8.29492 7.78066 7.9375V4.83496C7.78066 4.47754 7.97988 4.27246 8.31973 4.27246H9.74648C10.5785 4.27246 11.0795 4.67383 11.0795 5.32715C11.0795 5.80176 10.7221 6.17969 10.2533 6.24414V6.26758C10.8246 6.29395 11.2758 6.71875 11.2758 7.28125C11.2758 8.02246 10.7045 8.5 9.79922 8.5H8.31973ZM8.85586 5.99512H9.40957C9.79922 5.99512 10.0336 5.81055 10.0336 5.50586C10.0336 5.20996 9.82266 5.03418 9.4623 5.03418H8.85586V5.99512ZM8.85586 7.73828H9.49453C9.93691 7.73828 10.183 7.54492 10.183 7.1875C10.183 6.8418 9.93105 6.64844 9.48867 6.64844H8.85586V7.73828ZM12.8689 8.56445C12.5291 8.56445 12.3299 8.3623 12.3299 8.00488V4.76758C12.3299 4.41016 12.5291 4.20801 12.8689 4.20801C13.2088 4.20801 13.4051 4.41016 13.4051 4.76758V8.00488C13.4051 8.3623 13.2088 8.56445 12.8689 8.56445ZM15.1857 8.56445C14.8459 8.56445 14.6467 8.3623 14.6467 8.00488V4.76758C14.6467 4.41016 14.8459 4.20801 15.1857 4.20801C15.5256 4.20801 15.7219 4.41016 15.7219 4.76758V6.03906H15.7453L17.1838 4.44531C17.3361 4.27539 17.4709 4.20508 17.6525 4.20508C17.9338 4.20508 18.1594 4.4248 18.1594 4.7002C18.1594 4.8584 18.1037 4.97559 17.9602 5.13086L16.9494 6.19727L18.0305 7.52148C18.2062 7.73828 18.2795 7.89941 18.2795 8.04883C18.2795 8.3418 18.0568 8.56738 17.7639 8.56738C17.5383 8.56738 17.383 8.48242 17.2102 8.2627L16.1145 6.89453L15.7219 7.30469V8.00488C15.7219 8.3623 15.5256 8.56445 15.1857 8.56445ZM19.8932 8.5C19.5533 8.5 19.3541 8.29492 19.3541 7.9375V4.83496C19.3541 4.47754 19.5533 4.27246 19.8932 4.27246H21.8297C22.1197 4.27246 22.3072 4.43066 22.3072 4.70605C22.3072 4.98145 22.1139 5.13965 21.8297 5.13965H20.4293V5.98047H21.7652C22.026 5.98047 22.1988 6.12695 22.1988 6.37598C22.1988 6.625 22.0318 6.77148 21.7652 6.77148H20.4293V7.63281H21.8297C22.1139 7.63281 22.3072 7.79102 22.3072 8.06641C22.3072 8.3418 22.1197 8.5 21.8297 8.5H19.8932Z" fill="white"/>
<path d="M1.5 11.75H28.5C28.914 11.75 29.1458 12.074 29.25 12.5L30 14.75C30 14.9489 29.921 15.1397 29.7803 15.2803C29.6397 15.421 29.4489 15.5 29.25 15.5H0.75C0.551088 15.5 0.360322 15.421 0.21967 15.2803C0.0790176 15.1397 0 14.9489 0 14.75L0.75 12.5C0.89325 12.0928 1.086 11.75 1.5 11.75Z" fill="#404040"/>
</svg>
