<svg width="55" height="10" viewBox="0 0 55 10" fill="none" xmlns="http://www.w3.org/2000/svg">
<g clip-path="url(#clip0_18531_198147)">
<path fill-rule="evenodd" clip-rule="evenodd" d="M26.9589 8.33563L26.8589 8.61563C26.6942 8.97244 26.4475 9.28528 26.1389 9.52863H26.9589V8.33563ZM26.9589 0.920631V4.86063C26.455 5.29866 25.8135 5.54633 25.1459 5.56063L23.9459 5.59264C24.3914 5.36812 24.7533 5.00696 24.9787 4.562C25.2042 4.11703 25.2813 3.6116 25.1989 3.11963C25.0989 2.33463 24.6809 1.58963 23.9869 1.57363L23.5439 1.56564V8.50763C23.5397 8.62043 23.5751 8.73115 23.6439 8.82063C23.7754 9.01746 23.9207 9.20461 24.0789 9.38063C24.1209 9.42963 24.1619 9.48063 24.2049 9.53263H20.4599C20.5189 9.46163 20.5689 9.39663 20.6199 9.32463C20.7389 9.17886 20.8372 9.01734 20.9119 8.84464C20.9609 8.74754 20.9866 8.64037 20.9869 8.53163V1.08064C20.9699 0.688635 20.5689 0.464636 20.3259 0.231636L22.5079 0.224632H25.1489C25.8178 0.22353 26.4631 0.471667 26.9589 0.920631ZM26.9589 4.86063C27.217 4.63853 27.4238 4.36315 27.5652 4.05345C27.7066 3.74375 27.7792 3.40708 27.7779 3.06664V2.75363C27.7777 2.40774 27.7046 2.06578 27.5635 1.74998C27.4224 1.43417 27.2164 1.1516 26.9589 0.920631V4.86063ZM30.6859 0.224632V2.53864L30.6529 2.44963L29.5329 5.49263H30.6859V6.70163H29.0859L28.5259 8.37563C28.477 8.54788 28.4742 8.72998 28.5179 8.90363C28.5624 9.15272 28.6996 9.3757 28.9019 9.52763H26.9549V8.33563L29.3869 1.57763C29.4586 1.40269 29.4818 1.21164 29.4539 1.02464C29.4261 0.721968 29.2927 0.438747 29.0769 0.224632H30.6859ZM35.6419 8.24664L32.5239 0.223633L30.6859 0.224632V2.53864L31.8309 5.49263H30.6859V6.70163L32.3069 6.70263L32.8069 7.99163C32.8596 8.12177 32.891 8.25953 32.8999 8.39964C32.9322 8.62035 32.9014 8.84567 32.8112 9.04966C32.7209 9.25365 32.5749 9.428 32.3899 9.55264H35.6409L35.6419 8.24664ZM35.6419 1.52963L34.9149 0.529633L34.5719 0.22963H35.6419V1.52963ZM35.6419 9.55264H36.7199C36.2944 9.22931 35.9411 8.82055 35.6829 8.35263L35.6409 8.25263V9.55264H35.6419ZM38.3239 5.20464L35.6419 1.52963V0.22963H37.9239L40.1969 3.76064L40.3799 3.61563L41.7589 1.66264C41.8434 1.55713 41.9055 1.4356 41.9417 1.3054C41.9778 1.1752 41.9872 1.03902 41.9692 0.90509C41.9513 0.771162 41.9064 0.642262 41.8372 0.526169C41.7681 0.410076 41.6761 0.309195 41.5669 0.22963H44.7419L41.0729 5.20863V8.82063L41.7169 9.55663H37.7809L38.3329 8.82763C38.3319 7.62163 38.2859 6.40463 38.3239 5.20363V5.20464Z" fill="#0F62AC"/>
<path fill-rule="evenodd" clip-rule="evenodd" d="M12.084 3.45057V8.43957C12.084 8.63957 12.134 8.67157 12.267 8.83957L12.861 9.58357H10.011C10.17 9.34357 10.329 9.11157 10.496 8.88357C10.6098 8.74606 10.6721 8.5731 10.672 8.39457V1.42557L9.87199 0.18457H12.822L17.602 6.07757V1.37757C17.609 1.19931 17.5491 1.02486 17.434 0.888573C17.275 0.656573 17.109 0.424568 16.942 0.188568H19.791L19.198 0.932571C19.064 1.09257 19.023 1.13257 19.023 1.33257V9.81157C18.4506 9.78897 17.8894 9.6454 17.3765 9.39031C16.8635 9.13522 16.4104 8.77439 16.047 8.33157L12.084 3.45057ZM0 0.18457H3.03299L5.56499 7.15857L7.72099 1.37757C7.74138 1.29472 7.74453 1.20857 7.73026 1.12445C7.71598 1.04033 7.68457 0.960054 7.63799 0.888573C7.52099 0.656573 7.39599 0.424568 7.26999 0.188568H9.53299C9.39899 0.660568 9.19799 1.17357 9.03299 1.65357L6.10799 9.78057C5.23575 9.64228 4.41793 9.26812 3.743 8.69857C3.29403 8.23782 2.96417 7.67456 2.782 7.05757L0.340988 0.868568C0.245453 0.63197 0.131446 0.403265 0 0.18457Z" fill="#ED3237"/>
<path fill-rule="evenodd" clip-rule="evenodd" d="M52.106 3.13861V4.51461C52.0899 4.64932 52.1112 4.78586 52.1674 4.90932C52.2237 5.03277 52.3128 5.13838 52.425 5.21461V5.24261H50.425V5.21461C50.534 5.13906 50.62 5.03503 50.6738 4.91386C50.7276 4.7927 50.7471 4.65908 50.73 4.52761V1.15361C50.735 0.99041 50.7162 0.827355 50.674 0.669608C50.6282 0.540739 50.5405 0.430917 50.425 0.357611V0.342612H52.851C53.1023 0.338573 53.3514 0.389417 53.581 0.491606C53.7409 0.564554 53.8826 0.672094 53.9959 0.806464C54.1092 0.940834 54.1912 1.09868 54.236 1.26861C54.2701 1.39508 54.2866 1.52564 54.285 1.65661C54.2773 1.86843 54.2161 2.07485 54.107 2.25661C53.9407 2.51547 53.6987 2.71691 53.414 2.83361L54.376 4.45561C54.5469 4.7346 54.7574 4.98724 55.001 5.20561L54.16 5.26761L53.946 5.27461H53.746C53.5857 5.29322 53.4238 5.25713 53.2866 5.17218C53.1493 5.08723 53.0449 4.95841 52.99 4.80661L52.106 3.13861ZM52.106 2.7446C52.2539 2.72281 52.3951 2.66814 52.519 2.58461C52.639 2.50007 52.7365 2.38746 52.803 2.25661C52.8356 2.19272 52.8618 2.12572 52.881 2.05661C52.8993 1.98642 52.9084 1.91414 52.908 1.8416C52.915 1.63717 52.8491 1.43691 52.722 1.27661C52.6525 1.19855 52.5658 1.13756 52.4689 1.09837C52.3719 1.05918 52.2673 1.04283 52.163 1.0506H52.105L52.106 2.7446ZM46.534 2.69561C46.535 2.85839 46.5531 3.02062 46.588 3.17961C46.615 3.29761 46.659 3.44761 46.72 3.62661C46.8056 3.89013 46.9519 4.12989 47.147 4.32661C47.2363 4.41632 47.3429 4.48703 47.4603 4.53446C47.5777 4.58189 47.7035 4.60508 47.83 4.60261C47.9858 4.6116 48.1411 4.57743 48.2787 4.50385C48.4163 4.43028 48.531 4.32015 48.61 4.18561C48.7891 3.85937 48.8759 3.49048 48.861 3.11861C48.861 3.00661 48.8504 2.82861 48.829 2.58461C48.8051 2.4162 48.7717 2.24927 48.729 2.08461C48.6917 1.94482 48.6428 1.80836 48.583 1.67661C48.4957 1.46225 48.3489 1.27732 48.16 1.14361C47.9734 1.02059 47.7535 0.95777 47.53 0.963606C47.423 0.962699 47.3169 0.983453 47.218 1.02461C47.1208 1.06661 47.0321 1.1259 46.956 1.19961C46.8031 1.34778 46.692 1.53372 46.634 1.73861C46.5654 1.97067 46.5317 2.21163 46.534 2.4536V2.69061V2.69561ZM45.13 2.68061C45.1293 2.46341 45.1596 2.24723 45.22 2.03861C45.2831 1.8282 45.3724 1.6266 45.486 1.4386C45.7121 1.06005 46.0403 0.752961 46.433 0.552611C46.8767 0.326824 47.3693 0.214473 47.867 0.225607C48.0788 0.223737 48.2898 0.251336 48.494 0.307608C48.6964 0.365613 48.8906 0.44894 49.072 0.555609C49.4353 0.764555 49.7323 1.07162 49.929 1.44161C50.0363 1.63966 50.1196 1.84981 50.177 2.06761C50.3283 2.65987 50.2773 3.28569 50.032 3.84561C49.8867 4.20078 49.6627 4.5184 49.377 4.77461L49.729 5.11261C49.8723 5.24785 50.0232 5.37473 50.181 5.49261C50.3466 5.61379 50.525 5.71641 50.713 5.79861C50.9046 5.88562 51.1095 5.93971 51.319 5.95861C51.1435 6.10622 50.9457 6.22503 50.733 6.31061C50.5271 6.39347 50.307 6.43558 50.085 6.43461C49.885 6.43279 49.6872 6.39167 49.503 6.3136C49.3085 6.23244 49.1225 6.13194 48.948 6.01361C48.765 5.88761 48.598 5.76261 48.448 5.63961L48.048 5.30461C48.02 5.30461 47.984 5.30461 47.939 5.30461C47.894 5.30461 47.839 5.31661 47.78 5.32561L47.543 5.34461C47.1042 5.34886 46.6737 5.22515 46.304 4.98861C45.9325 4.7511 45.6327 4.41677 45.437 4.02161C45.3343 3.81894 45.2561 3.60476 45.204 3.3836C45.1526 3.15286 45.1278 2.917 45.13 2.68061Z" fill="#ED3237"/>
</g>
<defs>
<clipPath id="clip0_18531_198147">
<rect width="55" height="9.631" fill="white" transform="translate(0 0.18457)"/>
</clipPath>
</defs>
</svg>
