<svg width="30" height="16" viewBox="0 0 30 16" fill="none" xmlns="http://www.w3.org/2000/svg">
<path d="M26.7525 2.1426C26.6341 1.55739 26.3169 1.03117 25.8547 0.653194C25.3925 0.275217 24.8138 0.0687602 24.2168 0.0688477H5.83426C5.2372 0.0687602 4.65847 0.275217 4.19629 0.653194C3.7341 1.03117 3.41693 1.55739 3.29852 2.1426L1.34177 11.8176H28.7093L26.7525 2.1426Z" fill="#FED402"/>
<path d="M12.4912 0.0681153H5.83723C5.24017 0.0680278 4.66147 0.274484 4.19928 0.652462C3.7371 1.03044 3.41989 1.55666 3.30148 2.14187L1.34473 11.8169H7.99873L9.95549 2.14187C10.0739 1.55666 10.3911 1.03044 10.8533 0.652462C11.3155 0.274484 11.8942 0.0680278 12.4912 0.0681153Z" fill="#FDB441"/>
<path d="M23.76 4.05595V8.6782C23.76 8.90414 23.7155 9.12787 23.629 9.33661C23.5426 9.54535 23.4158 9.73502 23.2561 9.89478C23.0963 10.0545 22.9066 10.1813 22.6979 10.2677C22.4892 10.3542 22.2654 10.3987 22.0395 10.3987H7.72575C7.2701 10.3977 6.83345 10.216 6.5116 9.89345C6.18976 9.57091 6.009 9.13386 6.009 8.6782V4.05595C6.009 3.59965 6.19028 3.16203 6.51293 2.83937C6.83559 2.51672 7.2732 2.33545 7.72951 2.33545H22.0433C22.4996 2.33545 22.9372 2.51672 23.2598 2.83937C23.5825 3.16203 23.7638 3.59965 23.7638 4.05595" fill="#404040"/>
<path d="M10.7205 3.95996C10.9253 3.95996 11.0123 4.18496 11.0123 4.38821C11.0123 4.62446 10.9065 4.82921 10.7205 4.82921H9.86401V8.19971C9.86401 8.39846 9.62177 8.49971 9.37952 8.49971C9.13727 8.49971 8.89501 8.40071 8.89501 8.19971V4.82921H8.03852C7.85252 4.82921 7.74677 4.62446 7.74677 4.38821C7.74677 4.18346 7.83377 3.95996 8.03852 3.95996H10.7205Z" fill="white"/>
<path d="M13.5607 6.7971L13.1107 5.1336L12.6607 6.7971H13.5607ZM11.3107 8.1006C11.3125 8.07745 11.3168 8.05457 11.3235 8.03235L12.4777 4.2456C12.546 4.0281 12.8257 3.9231 13.1107 3.9231C13.3957 3.9231 13.6755 4.02885 13.7437 4.2456L14.9047 8.03235C14.9115 8.05457 14.9157 8.07745 14.9175 8.1006C14.9175 8.3301 14.5635 8.4981 14.2965 8.4981C14.1412 8.4981 14.0167 8.4486 13.98 8.3181L13.764 7.54185H12.4545L12.2437 8.3181C12.2062 8.4486 12.0825 8.4981 11.9272 8.4981C11.6602 8.4981 11.3062 8.33085 11.3062 8.1006" fill="white"/>
<path d="M17.3782 6.89398L16.4722 8.43373C16.4453 8.46812 16.4102 8.4952 16.3701 8.51249C16.33 8.52979 16.2862 8.53675 16.2427 8.53273C15.9757 8.53273 15.597 8.32198 15.597 8.05498C15.5991 7.99297 15.6183 7.93275 15.6525 7.88099L16.7265 6.22348L15.696 4.57349C15.6567 4.51675 15.6351 4.4497 15.6337 4.38073C15.6337 4.11973 15.9877 3.92098 16.2607 3.92098C16.3199 3.916 16.3791 3.92866 16.4311 3.95736C16.483 3.98606 16.5253 4.02952 16.5525 4.08224L17.3775 5.52223L18.2025 4.08224C18.2297 4.02952 18.272 3.98606 18.3239 3.95736C18.3758 3.92866 18.4351 3.916 18.4942 3.92098C18.7672 3.92098 19.1212 4.11973 19.1212 4.38073C19.1199 4.4497 19.0982 4.51675 19.059 4.57349L18.0285 6.22348L19.1025 7.88099C19.1367 7.93275 19.1559 7.99297 19.158 8.05498C19.158 8.32198 18.783 8.53273 18.5122 8.53273C18.4687 8.53739 18.4247 8.53073 18.3845 8.51338C18.3443 8.49604 18.3092 8.4686 18.2827 8.43373L17.3782 6.89398Z" fill="white"/>
<path d="M20.1533 4.25171C20.1533 4.04696 20.3955 3.95996 20.6378 3.95996C20.88 3.95996 21.1223 4.04696 21.1223 4.25171V8.19971C21.1223 8.39846 20.88 8.49971 20.6378 8.49971C20.3955 8.49971 20.1533 8.39846 20.1533 8.19971V4.25171Z" fill="white"/>
<path d="M1.5 11.75H28.5C28.914 11.75 29.1458 12.074 29.25 12.5L30 14.75C30 14.9489 29.921 15.1397 29.7803 15.2803C29.6397 15.421 29.4489 15.5 29.25 15.5H0.75C0.551088 15.5 0.360322 15.421 0.21967 15.2803C0.0790176 15.1397 0 14.9489 0 14.75L0.75 12.5C0.89325 12.0928 1.086 11.75 1.5 11.75Z" fill="#404040"/>
</svg>
